#N canvas 28 330 980 672 10;
#X floatatom 558 244 5 0 0 0 - - -, f 5;
#X floatatom 608 244 5 0 0 0 - - -, f 5;
#X floatatom 658 244 5 0 0 0 - - -, f 5;
#X floatatom 708 244 5 0 0 0 - - -, f 5;
#X floatatom 758 244 5 0 0 0 - - -, f 5;
#X floatatom 808 244 5 0 0 0 - - -, f 5;
#X floatatom 858 244 5 0 0 0 - - -, f 5;
#X floatatom 908 244 5 0 0 0 - - -, f 5;
#X obj 908 192 mod 2;
#X obj 858 219 div 2;
#X obj 858 192 mod 4;
#X obj 808 192 mod 8;
#X obj 808 219 div 4;
#X obj 758 192 mod 16;
#X obj 758 219 div 8;
#X obj 708 192 mod 32;
#X obj 708 219 div 16;
#X obj 658 192 mod 64;
#X obj 658 219 div 32;
#X obj 608 219 div 64;
#X obj 608 192 mod 128;
#X obj 558 219 div 128;
#X obj 558 192 mod 256;
#X obj 42 46 tgl 15 0 empty empty empty 17 7 0 10 -262144 -1 -1 0 1
;
#X obj 42 66 metro;
#X obj 42 88 f;
#X obj 89 145 hradio 15 1 0 8 empty empty empty 0 -8 0 10 -262144 -1
-1 3;
#X obj 78 116 mod 8;
#X obj 80 89 + 1;
#X obj 407 194 select 0 1 2 3 4 5 6 7;
#X obj 525 269 spigot;
#X obj 576 269 spigot;
#X obj 627 267 spigot;
#X obj 677 267 spigot;
#X obj 726 266 spigot;
#X obj 776 266 spigot;
#X obj 826 268 spigot;
#X obj 877 268 spigot;
#X floatatom 607 393 5 0 0 0 - - -, f 5;
#X floatatom 657 393 5 0 0 0 - - -, f 5;
#X floatatom 707 393 5 0 0 0 - - -, f 5;
#X floatatom 757 393 5 0 0 0 - - -, f 5;
#X floatatom 807 393 5 0 0 0 - - -, f 5;
#X floatatom 857 393 5 0 0 0 - - -, f 5;
#X floatatom 907 393 5 0 0 0 - - -, f 5;
#X floatatom 957 393 5 0 0 0 - - -, f 5;
#X obj 956 338 mod 2;
#X obj 906 364 div 2;
#X obj 906 338 mod 4;
#X obj 856 338 mod 8;
#X obj 856 364 div 4;
#X obj 806 338 mod 16;
#X obj 806 364 div 8;
#X obj 756 338 mod 32;
#X obj 756 364 div 16;
#X obj 706 338 mod 64;
#X obj 706 364 div 32;
#X obj 656 364 div 64;
#X obj 656 338 mod 128;
#X obj 606 364 div 128;
#X obj 606 338 mod 256;
#X obj 448 311 select 0 1 2 3 4 5 6 7;
#X obj 577 420 spigot;
#X obj 628 420 spigot;
#X obj 679 418 spigot;
#X obj 729 418 spigot;
#X obj 778 417 spigot;
#X obj 828 417 spigot;
#X obj 878 419 spigot;
#X obj 929 419 spigot;
#X floatatom 605 530 5 0 0 0 - - -, f 5;
#X floatatom 655 530 5 0 0 0 - - -, f 5;
#X floatatom 705 530 5 0 0 0 - - -, f 5;
#X floatatom 755 530 5 0 0 0 - - -, f 5;
#X floatatom 805 530 5 0 0 0 - - -, f 5;
#X floatatom 855 530 5 0 0 0 - - -, f 5;
#X floatatom 905 530 5 0 0 0 - - -, f 5;
#X floatatom 955 530 5 0 0 0 - - -, f 5;
#X obj 954 475 mod 2;
#X obj 904 501 div 2;
#X obj 904 475 mod 4;
#X obj 854 475 mod 8;
#X obj 854 501 div 4;
#X obj 804 475 mod 16;
#X obj 804 501 div 8;
#X obj 754 475 mod 32;
#X obj 754 501 div 16;
#X obj 704 475 mod 64;
#X obj 704 501 div 32;
#X obj 654 501 div 64;
#X obj 654 475 mod 128;
#X obj 604 501 div 128;
#X obj 604 475 mod 256;
#X obj 454 447 select 0 1 2 3 4 5 6 7;
#X obj 572 554 spigot;
#X obj 623 554 spigot;
#X obj 674 552 spigot;
#X obj 724 552 spigot;
#X obj 773 551 spigot;
#X obj 823 551 spigot;
#X obj 873 553 spigot;
#X obj 924 553 spigot;
#X obj 78 247 noise~;
#X obj 21 279 bp~ 1200 3;
#X floatatom 556 160 5 0 0 0 - - -, f 5;
#X floatatom 83 35 5 0 0 0 - - -, f 5;
#X obj 411 237 bng 15 250 50 0 empty empty empty 17 7 0 10 -262144
-1 -1;
#X floatatom 605 307 5 0 0 0 - - -, f 5;
#X floatatom 606 450 5 0 0 0 - - -, f 5;
#X obj 454 376 bng 15 250 50 0 empty empty empty 17 7 0 10 -262144
-1 -1;
#X obj 459 504 bng 15 250 50 0 empty empty empty 17 7 0 10 -262144
-1 -1;
#X obj 23 413 *~;
#X floatatom 54 413 5 0 0 0 - - -, f 5;
#X obj 26 122 mod 2;
#X obj 26 197 timer;
#X floatatom 25 224 5 0 0 0 - - -, f 5;
#X obj 23 170 sel 0;
#X obj 58 170 sel 1;
#X obj 24 245 s tVar;
#X obj 90 300 r tVar;
#X obj 420 266 s b1trig;
#X obj 31 301 r b1trig;
#X floatatom 76 392 5 0 0 0 - - -, f 5;
#X floatatom 39 572 5 0 0 0 - - -, f 5;
#X obj 24 625 dac~;
#X obj 39 435 vsl 15 128 0 1 0 0 empty empty empty 0 -9 0 10 -262144
-1 -1 1800 1;
#X obj 24 594 *~;
#X obj 87 330 / 1;
#X floatatom 118 332 5 0 0 0 - - -, f 5;
#X obj 458 406 s b2trig;
#X obj 62 364 f;
#X obj 156 411 *~;
#X floatatom 186 413 5 0 0 0 - - -, f 5;
#X obj 223 307 r tVar;
#X floatatom 208 389 5 0 0 0 - - -, f 5;
#X floatatom 172 579 5 0 0 0 - - -, f 5;
#X obj 157 632 dac~;
#X obj 172 442 vsl 15 128 0 1 0 0 empty empty empty 0 -9 0 10 -262144
-1 -1 1000 1;
#X obj 157 601 *~;
#X obj 220 337 / 1;
#X floatatom 251 339 5 0 0 0 - - -, f 5;
#X obj 197 361 f;
#X obj 164 308 r b2trig;
#X obj 154 284 bp~ 6000 3;
#X obj 296 419 *~;
#X floatatom 324 419 5 0 0 0 - - -, f 5;
#X obj 363 307 r tVar;
#X floatatom 361 393 5 0 0 0 - - -, f 5;
#X floatatom 312 579 5 0 0 0 - - -, f 5;
#X obj 297 632 dac~;
#X obj 312 442 vsl 15 128 0 1 0 0 empty empty empty 0 -9 0 10 -262144
-1 -1 10100 1;
#X obj 297 601 *~;
#X obj 360 337 / 1;
#X floatatom 391 339 5 0 0 0 - - -, f 5;
#X obj 344 368 f;
#X obj 304 308 r b3trig;
#X obj 462 545 s b3trig;
#X obj 295 284 bp~ 250 3;
#X obj 37 391 line;
#X obj 38 323 t b b b;
#X msg 95 363 1;
#X msg 31 365 0;
#X obj 170 387 line;
#X obj 311 396 line;
#X msg 311 368 0;
#X obj 305 334 t b b b;
#X msg 375 368 1;
#X obj 166 332 t b b b;
#X msg 228 361 1;
#X msg 168 361 0;
#X obj 351 124 route pdR1send pdG2send pdB3send;
#X obj 41 46 bng 15 250 50 0 empty empty empty 17 7 0 10 -262144 -1
-1;
#X obj 41 46 bng 15 250 50 0 empty empty empty 17 7 0 10 -262144 -1
-1;
#X msg 446 16 listen 6666;
#X obj 461 47 print whatever;
#X obj 317 46 netreceive -b -u 6666;
#X obj 270 67 oscparse;
#X obj 345 155 print R1;
#X obj 409 155 print G2;
#X obj 476 155 print B3;
#X obj 564 122 print ass;
#X obj 309 93 route list;
#X connect 0 0 30 1;
#X connect 1 0 31 1;
#X connect 2 0 32 1;
#X connect 3 0 33 1;
#X connect 4 0 34 1;
#X connect 5 0 35 1;
#X connect 6 0 36 1;
#X connect 7 0 37 1;
#X connect 8 0 7 0;
#X connect 9 0 6 0;
#X connect 10 0 9 0;
#X connect 10 0 8 0;
#X connect 11 0 10 0;
#X connect 11 0 12 0;
#X connect 12 0 5 0;
#X connect 13 0 11 0;
#X connect 13 0 14 0;
#X connect 14 0 4 0;
#X connect 15 0 13 0;
#X connect 15 0 16 0;
#X connect 16 0 3 0;
#X connect 17 0 15 0;
#X connect 17 0 18 0;
#X connect 18 0 2 0;
#X connect 19 0 1 0;
#X connect 20 0 17 0;
#X connect 20 0 19 0;
#X connect 21 0 0 0;
#X connect 22 0 20 0;
#X connect 22 0 21 0;
#X connect 23 0 24 0;
#X connect 24 0 25 0;
#X connect 25 0 27 0;
#X connect 25 0 28 0;
#X connect 25 0 113 0;
#X connect 26 0 29 0;
#X connect 26 0 61 0;
#X connect 26 0 93 0;
#X connect 27 0 26 0;
#X connect 28 0 25 1;
#X connect 29 0 30 0;
#X connect 29 1 31 0;
#X connect 29 2 32 0;
#X connect 29 3 33 0;
#X connect 29 4 34 0;
#X connect 29 5 35 0;
#X connect 29 6 36 0;
#X connect 29 7 37 0;
#X connect 30 0 106 0;
#X connect 31 0 106 0;
#X connect 32 0 106 0;
#X connect 33 0 106 0;
#X connect 34 0 106 0;
#X connect 35 0 106 0;
#X connect 36 0 106 0;
#X connect 37 0 106 0;
#X connect 38 0 62 1;
#X connect 39 0 63 1;
#X connect 40 0 64 1;
#X connect 41 0 65 1;
#X connect 42 0 66 1;
#X connect 43 0 67 1;
#X connect 44 0 68 1;
#X connect 45 0 69 1;
#X connect 46 0 45 0;
#X connect 47 0 44 0;
#X connect 48 0 47 0;
#X connect 48 0 46 0;
#X connect 49 0 48 0;
#X connect 49 0 50 0;
#X connect 50 0 43 0;
#X connect 51 0 49 0;
#X connect 51 0 52 0;
#X connect 52 0 42 0;
#X connect 53 0 51 0;
#X connect 53 0 54 0;
#X connect 54 0 41 0;
#X connect 55 0 53 0;
#X connect 55 0 56 0;
#X connect 56 0 40 0;
#X connect 57 0 39 0;
#X connect 58 0 55 0;
#X connect 58 0 57 0;
#X connect 59 0 38 0;
#X connect 60 0 58 0;
#X connect 60 0 59 0;
#X connect 61 0 62 0;
#X connect 61 1 63 0;
#X connect 61 2 64 0;
#X connect 61 3 65 0;
#X connect 61 4 66 0;
#X connect 61 5 67 0;
#X connect 61 6 68 0;
#X connect 61 7 69 0;
#X connect 62 0 109 0;
#X connect 63 0 109 0;
#X connect 64 0 109 0;
#X connect 65 0 109 0;
#X connect 66 0 109 0;
#X connect 67 0 109 0;
#X connect 68 0 109 0;
#X connect 69 0 109 0;
#X connect 70 0 94 1;
#X connect 71 0 95 1;
#X connect 72 0 96 1;
#X connect 73 0 97 1;
#X connect 74 0 98 1;
#X connect 75 0 99 1;
#X connect 76 0 100 1;
#X connect 77 0 101 1;
#X connect 78 0 77 0;
#X connect 79 0 76 0;
#X connect 80 0 79 0;
#X connect 80 0 78 0;
#X connect 81 0 80 0;
#X connect 81 0 82 0;
#X connect 82 0 75 0;
#X connect 83 0 81 0;
#X connect 83 0 84 0;
#X connect 84 0 74 0;
#X connect 85 0 83 0;
#X connect 85 0 86 0;
#X connect 86 0 73 0;
#X connect 87 0 85 0;
#X connect 87 0 88 0;
#X connect 88 0 72 0;
#X connect 89 0 71 0;
#X connect 90 0 87 0;
#X connect 90 0 89 0;
#X connect 91 0 70 0;
#X connect 92 0 90 0;
#X connect 92 0 91 0;
#X connect 93 0 94 0;
#X connect 93 1 95 0;
#X connect 93 2 96 0;
#X connect 93 3 97 0;
#X connect 93 4 98 0;
#X connect 93 5 99 0;
#X connect 93 6 100 0;
#X connect 93 7 101 0;
#X connect 94 0 110 0;
#X connect 95 0 110 0;
#X connect 96 0 110 0;
#X connect 97 0 110 0;
#X connect 98 0 110 0;
#X connect 99 0 110 0;
#X connect 100 0 110 0;
#X connect 101 0 110 0;
#X connect 102 0 103 0;
#X connect 102 0 143 0;
#X connect 102 0 157 0;
#X connect 103 0 111 0;
#X connect 104 0 22 0;
#X connect 105 0 24 1;
#X connect 106 0 120 0;
#X connect 107 0 60 0;
#X connect 108 0 92 0;
#X connect 109 0 129 0;
#X connect 110 0 156 0;
#X connect 111 0 126 0;
#X connect 113 0 116 0;
#X connect 113 0 117 0;
#X connect 114 0 115 0;
#X connect 115 0 118 0;
#X connect 116 0 114 0;
#X connect 117 0 114 1;
#X connect 119 0 127 0;
#X connect 121 0 159 0;
#X connect 122 0 158 2;
#X connect 123 0 126 1;
#X connect 125 0 123 0;
#X connect 126 0 124 0;
#X connect 126 0 124 1;
#X connect 127 0 130 1;
#X connect 128 0 127 1;
#X connect 130 0 158 1;
#X connect 131 0 138 0;
#X connect 133 0 139 0;
#X connect 134 0 162 2;
#X connect 135 0 138 1;
#X connect 137 0 135 0;
#X connect 138 0 136 0;
#X connect 138 0 136 1;
#X connect 139 0 141 1;
#X connect 140 0 139 1;
#X connect 141 0 162 1;
#X connect 142 0 167 0;
#X connect 143 0 131 0;
#X connect 144 0 151 0;
#X connect 146 0 152 0;
#X connect 147 0 163 2;
#X connect 148 0 151 1;
#X connect 150 0 148 0;
#X connect 151 0 149 0;
#X connect 151 0 149 1;
#X connect 152 0 154 1;
#X connect 153 0 152 1;
#X connect 154 0 163 1;
#X connect 155 0 165 0;
#X connect 157 0 144 0;
#X connect 158 0 111 1;
#X connect 158 0 112 0;
#X connect 159 0 161 0;
#X connect 159 1 130 0;
#X connect 159 2 160 0;
#X connect 160 0 158 0;
#X connect 161 0 158 0;
#X connect 162 0 131 1;
#X connect 162 0 132 0;
#X connect 163 0 144 1;
#X connect 163 0 145 0;
#X connect 164 0 163 0;
#X connect 165 0 164 0;
#X connect 165 1 154 0;
#X connect 165 2 166 0;
#X connect 166 0 163 0;
#X connect 167 0 169 0;
#X connect 167 1 141 0;
#X connect 167 2 168 0;
#X connect 168 0 162 0;
#X connect 169 0 162 0;
#X connect 170 0 177 0;
#X connect 170 0 104 0;
#X connect 170 1 178 0;
#X connect 170 1 107 0;
#X connect 170 2 179 0;
#X connect 170 2 108 0;
#X connect 170 3 180 0;
#X connect 173 0 174 0;
#X connect 173 0 175 0;
#X connect 175 0 176 0;
#X connect 176 0 181 0;
#X connect 181 0 170 0;
